<?xml version="1.0" encoding="utf-8"?>
<!-- Generator: Adobe Illustrator 23.0.0, SVG Export Plug-In . SVG Version: 6.00 Build 0)  -->
<svg version="1.1" xmlns="http://www.w3.org/2000/svg" xmlns:xlink="http://www.w3.org/1999/xlink" x="0px" y="0px"
	 viewBox="0 0 250 230" style="enable-background:new 0 0 250 230;" xml:space="preserve">
<style type="text/css">
	.st0{fill:#15AFBE;}
	.st1{fill:#DBDBDB;}
	.st2{fill:none;}
	.st3{fill:#178690;}
	.st4{fill:#FBD4B0;}
	.st5{fill:#EEC59F;}
	.st6{fill:#C7C7C7;}
</style>
<g id="Capa_1">
</g>
<g id="Capa_2">
	<g id="Capa_3">
	</g>
	<g>
		<circle class="st0" cx="127" cy="114.53" r="108.5"/>
		<path class="st1" d="M66.4,205.53c0,0,53.98,42.74,123.96-1.92l-7.28-34.69c0,0-49.94-37.34-108.02-2.3L66.4,205.53z"/>
		<line class="st2" x1="42.89" y1="82.35" x2="42.89" y2="152.85"/>
		<g>
			<path class="st3" d="M190.35,203.61c0,0,38.78-27.91,44.73-79.27L126.31,70.79l-0.38,80.83L190.35,203.61z"/>
			<g>
				<g>
					<ellipse class="st4" cx="126.93" cy="100" rx="45.7" ry="41.29"/>
				</g>
				<path class="st5" d="M125.55,58.71v82.58c26,0,47.08-18.49,47.08-41.29S151.55,58.71,125.55,58.71z"/>
			</g>
		</g>
		<path class="st6" d="M182.79,168.94c0,0-23.31-16.76-56.85-17.28v72.29c18.8-0.5,40.73-5.77,64.42-20.32L182.79,168.94z"/>
	</g>
</g>
</svg>
